:SAMPLES-PER-SECOND 30
:FRAME-RANGE 1-2091
:FULLY-SPECIFIED
:DEGREES
458
root  9.6381 38.6368 20.2906 -177.42 -15.8891 -175.601
RightUpLeg  -22.2177 0.642232 7.79426
RightLeg  13.583 -27.3858 -1.53933
RightFoot  -0.225491 0.530368 -5.45755
RightToes  5.38607e-012 1.2921e-014 -6.02303e-014
Spine  -6.45966 0.790361 6.96326
Spine1  10.8151 2.0474 -4.59247
HEad  14.9964 17.7029 -1.18604
LeftShoulder1  0.400692 1.60373 -17.1112
LeftArm  -10.4039 7.6564 -23.9675
LeftForeArm  7.53542 7.27724 -8.40592
LeftHand  0.14169 8.23579 7.15062
RightShoulder  1.90022 2.40437 27.3106
RightArm  -27.0614 -1.57213 47.5831
RightForeArm  63.4465 -4.13998 3.01164
RightHand  0.0406383 -5.76171 -17.0195
LeftUpLeg  -1.07684 -3.16474 10.2617
LeftLeg  41.0401 -11.305 -10.0046
LeftFoot  -6.51545 0.71679 -16
LeftToes  -7.20997e-011 3.75522e-011 -2.80735e-011
459
root  9.6988 38.606 19.0526 -177.836 -14.7878 -174.559
RightUpLeg  -21.3414 2.09135 9.79001
RightLeg  16.3877 -27.4256 -3.27209
RightFoot  -1.99654 0.462832 -5.81881
RightToes  5.38607e-012 1.2921e-014 -6.02303e-014
Spine  -6.14717 0.932732 8.3904
Spine1  11.6447 2.15976 -3.64429
HEad  14.1736 17.0437 -1.27885
LeftShoulder1  0.356267 1.74888 -16.3963
LeftArm  -7.49179 14.7777 -21.4185
LeftForeArm  8.56748 7.36588 -8.92145
LeftHand  0.0845185 7.15159 7.46277
RightShoulder  1.93296 2.5803 26.8595
RightArm  -27.4466 -1.33027 47.8503
RightForeArm  63.8804 -2.18775 3.10343
RightHand  0.0430546 -5.79523 -16.4891
LeftUpLeg  -6.94601 -5.47497 11.5633
LeftLeg  51.7743 -8.69331 -11.2202
LeftFoot  3.72585 2.46225 -18.648
LeftToes  -7.20997e-011 3.75522e-011 -2.80735e-011
460
root  9.70989 38.5874 17.8133 -178.408 -13.8902 -174.321
RightUpLeg  -19.8469 1.33205 10.7635
RightLeg  18.8535 -25.8561 -3.4984
RightFoot  -4.47945 0.330011 -5.99977
RightToes  5.38607e-012 1.2921e-014 -6.02303e-014
Spine  -5.49352 1.05138 9.35514
Spine1  12.0117 2.37662 -3.0469
HEad  14.126 16.0311 -1.06911
LeftShoulder1  0.292296 1.98865 -15.6457
LeftArm  -4.84538 19.3425 -19.329
LeftForeArm  10.2746 7.506 -9.75209
LeftHand  0.0581366 6.52525 8.48315
RightShoulder  1.95833 2.58498 27.2809
RightArm  -25.9342 -1.02228 46.8718
RightForeArm  62.0986 -0.581241 4.14117
RightHand  0.0505436 -5.83133 -16.9841
LeftUpLeg  -11.8079 -7.93839 11.6133
LeftLeg  59.4821 -7.13845 -12.3582
LeftFoot  9.24308 2.74579 -15.3566
LeftToes  -7.20997e-011 3.75522e-011 -2.80735e-011
461
root  9.7424 38.6889 16.5264 -178.676 -12.2727 -174.707
RightUpLeg  -17.6003 0.598575 11.2705
RightLeg  19.5562 -23.793 -3.08512
RightFoot  -6.22899 0.244181 -6.40077
RightToes  5.38607e-012 1.2921e-014 -6.02303e-014
Spine  -5.28319 1.63019 9.9418
Spine1  12.1106 3.13074 -3.25897
HEad  14.832 14.7801 -0.795096
LeftShoulder1  0.248681 2.14706 -14.8504
LeftArm  -3.1777 22.6351 -17.9134
LeftForeArm  11.138 7.58102 -10.2069
LeftHand  0.0494611 6.308 9.17438
RightShoulder  1.98211 2.62927 27.4408
RightArm  -25.125 -0.939907 46.2787
RightForeArm  60.2191 0.489701 4.73545
RightHand  0.0433255 -5.76296 -17.6008
LeftUpLeg  -15.55 -9.34389 11.1938
LeftLeg  63.4762 -5.43036 -11.1143
LeftFoot  4.38598 1.86064 -13.6136
LeftToes  -7.20997e-011 3.75522e-011 -2.80735e-011
462
root  9.82092 38.8382 15.2623 -179.371 -10.5419 -175.316
RightUpLeg  -14.5015 0.668883 11.7402
RightLeg  19.5017 -22.498 -3.31205
RightFoot  -7.51161 0.172191 -6.65479
RightToes  5.38607e-012 1.2921e-014 -6.02303e-014
Spine  -4.57426 1.87623 9.47814
Spine1  11.9485 3.36322 -2.90536
HEad  15.0591 13.9027 -0.951854
LeftShoulder1  0.0707352 2.97084 -14.573
LeftArm  -0.301967 24.8165 -16.4881
LeftForeArm  9.13371 7.72591 -11.1573
LeftHand  0.266722 8.66402 10.4951
RightShoulder  2.11324 3.12339 26.9057
RightArm  -25.4861 -0.802387 46.7049
RightForeArm  59.611 0.992608 4.64612
RightHand  -0.0134643 -5.38453 -17.5464
LeftUpLeg  -18.1846 -10.4854 10.3804
LeftLeg  63.4349 -3.23079 -6.40793
LeftFoot  2.99838 1.48674 -11.9306
LeftToes  -7.20997e-011 3.75522e-011 -2.80735e-011
